<svg xmlns="http://www.w3.org/2000/svg">
	<symbol viewBox="0 0 96 96" id='social-icon-github'>
		<path
			fill="currentColor"
			d="M48.854 0C21.839 0 0 22 0 49.217c0 21.756 13.993 40.172 33.405 46.69 2.427.49 3.316-1.059 3.316-2.362 0-1.141-.08-5.052-.08-9.127-13.59 2.934-16.42-5.867-16.42-5.867-2.184-5.704-5.42-7.17-5.42-7.17-4.448-3.015.324-3.015.324-3.015 4.934.326 7.523 5.052 7.523 5.052 4.367 7.496 11.404 5.378 14.235 4.074.404-3.178 1.699-5.378 3.074-6.6-10.839-1.141-22.243-5.378-22.243-24.283 0-5.378 1.94-9.778 5.014-13.2-.485-1.222-2.184-6.275.486-13.038 0 0 4.125-1.304 13.426 5.052a46.97 46.97 0 0 1 12.214-1.63c4.125 0 8.33.571 12.213 1.63 9.302-6.356 13.427-5.052 13.427-5.052 2.67 6.763.97 11.816.485 13.038 3.155 3.422 5.015 7.822 5.015 13.2 0 18.905-11.404 23.06-22.324 24.283 1.78 1.548 3.316 4.481 3.316 9.126 0 6.6-.08 11.897-.08 13.526 0 1.304.89 2.853 3.316 2.364 19.412-6.52 33.405-24.935 33.405-46.691C97.707 22 75.788 0 48.854 0z"
		/>
	</symbol>

	<symbol viewBox="0 0 30 30" id='social-icon-linkedin'>
		<path
			fill="currentColor"
			d="M25.6055 0H4.39453C1.97159 0 0 1.97159 0 4.39453V25.6055C0 28.0284 1.97159 30 4.39453 30H25.6055C28.0284 30 30 28.0284 30 25.6055V4.39453C30 1.97159 28.0284 0 25.6055 0ZM10.6055 23.7891H7.08984V11.4844H10.6055V23.7891ZM10.6055 9.72656H7.08984V6.21094H10.6055V9.72656ZM22.9102 23.7891H19.3945V16.7578C19.3945 15.7887 18.6058 15 17.6367 15C16.6676 15 15.8789 15.7887 15.8789 16.7578V23.7891H12.3633V11.4844H15.8789V12.147C16.7999 11.8607 17.3982 11.4844 18.5156 11.4844C20.8999 11.4869 22.9102 13.6258 22.9102 16.1536V23.7891Z"
		/>
	</symbol>

	<symbol viewBox="0 0 20 20" id='social-icon-email'>
		<path d="M4 2.586C4 2.034 4.448 2 5 2h10c.552 0 1 .034 1 .586v1.249l-5.553 2.777c-.281.14-.613.14-.894 0L4 3.835V2.586ZM2.276 5.209l6.83 3.415a1.995 1.995 0 0 0 1.788 0l6.83-3.415A.499.499 0 0 0 18 4.762V1.586C18 .481 17.105 0 16 0H4C2.895 0 2 .481 2 1.586v3.176c0 .19.107.363.276.447ZM18 16.586c0 .552-.448 1.414-1 1.414H3c-.552 0-1-.862-1-1.414v-6.47a.5.5 0 0 1 .724-.447l6.395 3.198a1.995 1.995 0 0 0 1.767.01c3.471-1.684 2.012-.98 6.398-3.086a.5.5 0 0 1 .716.451v6.344Zm-.894-9.068-6.659 3.33c-.281.14-.613.14-.894 0l-6.659-3.33C1.565 6.854 0 7.821 0 9.307v8.279C0 18.691.895 20 2 20h16c1.105 0 2-1.309 2-2.414V9.307c0-1.486-1.565-2.453-2.894-1.789Z" fill="currentColor" fill-rule="evenodd"/>
	</symbol>
</svg>
