<svg xmlns="http://www.w3.org/2000/svg" width="100%" viewBox="198.59536627550332 115 152.80926744899332 152.80926744899335">
   <style>
        path {
            fill: black;
        }
        @media (prefers-color-scheme: dark) {
            path { fill: white; }
        }
    </style>
  <g fill-rule="evenodd">
    <path d="M274.99999,115c-6.90261,0 -13.59947,0.92407 -18.46041,2.12361c3.77647,-0.76192 6.0814,-0.88222 8.41075,-0.88048c37.27651,0 67.68005,30.40354 67.68005,67.68179c0,17.25389 -6.90958,32.71546 -16.34203,44.7475c-4.39193,5.60193 -11.50551,9.87182 -19.92672,9.87182c-14.56887,0 -26.44924,-11.87862 -26.44924,-26.44574c0,-14.56887 11.88036,-26.44924 26.44924,-26.44924c14.11207,0 25.69952,11.14983 26.71948,24.85566c3.95431,-8.27999 5.98726,-17.19984 5.98726,-26.58c0,-35.31679 -28.80299,-64.11978 -64.11804,-64.11978c-13.2438,0 -25.57224,4.0502 -35.37606,10.4437c-18.58944,13.38851 -30.9789,35.87123 -30.9789,61.15579c0,42.08166 34.32298,76.40463 76.40463,76.40463c42.08166,0 76.40463,-34.32124 76.40463,-76.40463c0,-42.0834 -34.32298,-76.40463 -76.40463,-76.40463z" />
  </g>
</svg>
